<mxfile host="65bd71144e">
    <diagram id="prtHgNgQTEPvFCAcTncT" name="Page-1">
        <mxGraphModel dx="1014" dy="716" grid="1" gridSize="10" guides="1" tooltips="1" connect="1" arrows="1" fold="1" page="1" pageScale="1" pageWidth="1169" pageHeight="827" math="0" shadow="0">
            <root>
                <mxCell id="0"/>
                <mxCell id="1" parent="0"/>
                <mxCell id="URHFPd7x1FeZMZEvrIZl-15" value="" style="edgeStyle=orthogonalEdgeStyle;rounded=0;orthogonalLoop=1;jettySize=auto;html=1;" parent="1" source="bkZHaeIWT0W7Z0gGQJD7-1" target="bkZHaeIWT0W7Z0gGQJD7-2" edge="1">
                    <mxGeometry relative="1" as="geometry"/>
                </mxCell>
                <mxCell id="URHFPd7x1FeZMZEvrIZl-20" style="edgeStyle=orthogonalEdgeStyle;rounded=0;orthogonalLoop=1;jettySize=auto;html=1;entryX=0;entryY=0.5;entryDx=0;entryDy=0;" parent="1" source="bkZHaeIWT0W7Z0gGQJD7-1" target="bkZHaeIWT0W7Z0gGQJD7-9" edge="1">
                    <mxGeometry relative="1" as="geometry">
                        <Array as="points">
                            <mxPoint x="263" y="680"/>
                        </Array>
                    </mxGeometry>
                </mxCell>
                <mxCell id="bkZHaeIWT0W7Z0gGQJD7-1" value="프론트 엔드" style="whiteSpace=wrap;html=1;aspect=fixed;" parent="1" vertex="1">
                    <mxGeometry x="222.5" y="494.5" width="80" height="80" as="geometry"/>
                </mxCell>
                <mxCell id="URHFPd7x1FeZMZEvrIZl-18" style="edgeStyle=orthogonalEdgeStyle;rounded=0;orthogonalLoop=1;jettySize=auto;html=1;" parent="1" source="bkZHaeIWT0W7Z0gGQJD7-2" target="bkZHaeIWT0W7Z0gGQJD7-1" edge="1">
                    <mxGeometry relative="1" as="geometry"/>
                </mxCell>
                <mxCell id="URHFPd7x1FeZMZEvrIZl-21" style="edgeStyle=orthogonalEdgeStyle;rounded=0;orthogonalLoop=1;jettySize=auto;html=1;entryX=0.5;entryY=1;entryDx=0;entryDy=0;" parent="1" source="bkZHaeIWT0W7Z0gGQJD7-2" target="bkZHaeIWT0W7Z0gGQJD7-6" edge="1">
                    <mxGeometry relative="1" as="geometry"/>
                </mxCell>
                <mxCell id="bkZHaeIWT0W7Z0gGQJD7-2" value="사용자 지갑" style="whiteSpace=wrap;html=1;aspect=fixed;" parent="1" vertex="1">
                    <mxGeometry x="222.5" y="353" width="80" height="80" as="geometry"/>
                </mxCell>
                <mxCell id="URHFPd7x1FeZMZEvrIZl-23" style="edgeStyle=orthogonalEdgeStyle;rounded=0;orthogonalLoop=1;jettySize=auto;html=1;" parent="1" source="bkZHaeIWT0W7Z0gGQJD7-5" target="bkZHaeIWT0W7Z0gGQJD7-1" edge="1">
                    <mxGeometry relative="1" as="geometry">
                        <Array as="points">
                            <mxPoint x="460" y="535"/>
                            <mxPoint x="460" y="535"/>
                        </Array>
                    </mxGeometry>
                </mxCell>
                <mxCell id="URHFPd7x1FeZMZEvrIZl-50" style="edgeStyle=orthogonalEdgeStyle;rounded=0;orthogonalLoop=1;jettySize=auto;html=1;entryX=0.5;entryY=0;entryDx=0;entryDy=0;" parent="1" source="bkZHaeIWT0W7Z0gGQJD7-5" target="bkZHaeIWT0W7Z0gGQJD7-9" edge="1">
                    <mxGeometry relative="1" as="geometry"/>
                </mxCell>
                <mxCell id="bkZHaeIWT0W7Z0gGQJD7-5" value="스마트&lt;br&gt;컨트랙트" style="whiteSpace=wrap;html=1;aspect=fixed;" parent="1" vertex="1">
                    <mxGeometry x="512.5" y="494.5" width="80" height="80" as="geometry"/>
                </mxCell>
                <mxCell id="URHFPd7x1FeZMZEvrIZl-22" style="edgeStyle=orthogonalEdgeStyle;rounded=0;orthogonalLoop=1;jettySize=auto;html=1;entryX=0;entryY=0.5;entryDx=0;entryDy=0;" parent="1" source="bkZHaeIWT0W7Z0gGQJD7-6" target="bkZHaeIWT0W7Z0gGQJD7-7" edge="1">
                    <mxGeometry relative="1" as="geometry"/>
                </mxCell>
                <mxCell id="bkZHaeIWT0W7Z0gGQJD7-6" value="중간자 노드" style="whiteSpace=wrap;html=1;aspect=fixed;" parent="1" vertex="1">
                    <mxGeometry x="222.5" y="210" width="80" height="80" as="geometry"/>
                </mxCell>
                <mxCell id="URHFPd7x1FeZMZEvrIZl-24" style="edgeStyle=orthogonalEdgeStyle;rounded=0;orthogonalLoop=1;jettySize=auto;html=1;entryX=0.5;entryY=0;entryDx=0;entryDy=0;" parent="1" source="bkZHaeIWT0W7Z0gGQJD7-7" target="bkZHaeIWT0W7Z0gGQJD7-5" edge="1">
                    <mxGeometry relative="1" as="geometry"/>
                </mxCell>
                <mxCell id="bkZHaeIWT0W7Z0gGQJD7-7" value="블록체인 &lt;br&gt;네트워크" style="whiteSpace=wrap;html=1;aspect=fixed;" parent="1" vertex="1">
                    <mxGeometry x="512.5" y="200" width="80" height="80" as="geometry"/>
                </mxCell>
                <mxCell id="URHFPd7x1FeZMZEvrIZl-25" style="edgeStyle=orthogonalEdgeStyle;rounded=0;orthogonalLoop=1;jettySize=auto;html=1;entryX=1;entryY=0.5;entryDx=0;entryDy=0;" parent="1" source="bkZHaeIWT0W7Z0gGQJD7-8" target="bkZHaeIWT0W7Z0gGQJD7-5" edge="1">
                    <mxGeometry relative="1" as="geometry"/>
                </mxCell>
                <mxCell id="bkZHaeIWT0W7Z0gGQJD7-8" value="오라클" style="whiteSpace=wrap;html=1;aspect=fixed;" parent="1" vertex="1">
                    <mxGeometry x="654.5" y="348.5" width="80" height="80" as="geometry"/>
                </mxCell>
                <mxCell id="URHFPd7x1FeZMZEvrIZl-14" style="edgeStyle=orthogonalEdgeStyle;rounded=0;orthogonalLoop=1;jettySize=auto;html=1;" parent="1" source="bkZHaeIWT0W7Z0gGQJD7-9" target="bkZHaeIWT0W7Z0gGQJD7-1" edge="1">
                    <mxGeometry relative="1" as="geometry"/>
                </mxCell>
                <mxCell id="URHFPd7x1FeZMZEvrIZl-49" style="edgeStyle=orthogonalEdgeStyle;rounded=0;orthogonalLoop=1;jettySize=auto;html=1;entryX=0.5;entryY=1;entryDx=0;entryDy=0;" parent="1" source="bkZHaeIWT0W7Z0gGQJD7-9" target="bkZHaeIWT0W7Z0gGQJD7-5" edge="1">
                    <mxGeometry relative="1" as="geometry"/>
                </mxCell>
                <mxCell id="bkZHaeIWT0W7Z0gGQJD7-9" value="분산 파일&lt;br&gt;시스템" style="whiteSpace=wrap;html=1;aspect=fixed;" parent="1" vertex="1">
                    <mxGeometry x="512.5" y="640" width="80" height="80" as="geometry"/>
                </mxCell>
                <mxCell id="bkZHaeIWT0W7Z0gGQJD7-11" value="&lt;h1&gt;&lt;span&gt;Pure dapp&lt;/span&gt;&lt;/h1&gt;&lt;div&gt;프로젝트 내 블록체인 비율이 가장 높은 탈중앙화 방식 dapp 아키텍처&amp;nbsp;&lt;/div&gt;" style="text;html=1;strokeColor=none;fillColor=none;spacing=5;spacingTop=-20;whiteSpace=wrap;overflow=hidden;rounded=0;" parent="1" vertex="1">
                    <mxGeometry x="50" y="20" width="190" height="120" as="geometry"/>
                </mxCell>
                <mxCell id="bkZHaeIWT0W7Z0gGQJD7-22" value="&lt;h1&gt;&lt;span&gt;Dapp-ish&lt;/span&gt;&lt;/h1&gt;&lt;div&gt;Backend + Tx broadcast&lt;/div&gt;" style="text;html=1;strokeColor=none;fillColor=none;spacing=5;spacingTop=-20;whiteSpace=wrap;overflow=hidden;rounded=0;" parent="1" vertex="1">
                    <mxGeometry x="60" y="880" width="190" height="120" as="geometry"/>
                </mxCell>
                <mxCell id="bkZHaeIWT0W7Z0gGQJD7-23" value="프론트 엔드" style="whiteSpace=wrap;html=1;aspect=fixed;" parent="1" vertex="1">
                    <mxGeometry x="2390" y="103.5" width="80" height="80" as="geometry"/>
                </mxCell>
                <mxCell id="bkZHaeIWT0W7Z0gGQJD7-24" value="사용자 지갑" style="whiteSpace=wrap;html=1;aspect=fixed;" parent="1" vertex="1">
                    <mxGeometry x="2400" y="593.5" width="80" height="80" as="geometry"/>
                </mxCell>
                <mxCell id="bkZHaeIWT0W7Z0gGQJD7-25" value="데이터베이스" style="whiteSpace=wrap;html=1;aspect=fixed;" parent="1" vertex="1">
                    <mxGeometry x="2400" y="423.5" width="80" height="80" as="geometry"/>
                </mxCell>
                <mxCell id="bkZHaeIWT0W7Z0gGQJD7-26" value="서버" style="whiteSpace=wrap;html=1;aspect=fixed;" parent="1" vertex="1">
                    <mxGeometry x="2390" y="233.5" width="80" height="80" as="geometry"/>
                </mxCell>
                <mxCell id="bkZHaeIWT0W7Z0gGQJD7-27" value="스마트&lt;br&gt;컨트랙트" style="whiteSpace=wrap;html=1;aspect=fixed;" parent="1" vertex="1">
                    <mxGeometry x="2620" y="393.5" width="80" height="80" as="geometry"/>
                </mxCell>
                <mxCell id="bkZHaeIWT0W7Z0gGQJD7-28" value="중간자 노드" style="whiteSpace=wrap;html=1;aspect=fixed;" parent="1" vertex="1">
                    <mxGeometry x="2610" y="266.5" width="80" height="80" as="geometry"/>
                </mxCell>
                <mxCell id="bkZHaeIWT0W7Z0gGQJD7-29" value="블록체인 &lt;br&gt;네트워크" style="whiteSpace=wrap;html=1;aspect=fixed;" parent="1" vertex="1">
                    <mxGeometry x="2770" y="233.5" width="80" height="80" as="geometry"/>
                </mxCell>
                <mxCell id="bkZHaeIWT0W7Z0gGQJD7-30" value="오라클" style="whiteSpace=wrap;html=1;aspect=fixed;" parent="1" vertex="1">
                    <mxGeometry x="2770" y="363.5" width="80" height="80" as="geometry"/>
                </mxCell>
                <mxCell id="bkZHaeIWT0W7Z0gGQJD7-31" value="분산 파일&lt;br&gt;시스템" style="whiteSpace=wrap;html=1;aspect=fixed;" parent="1" vertex="1">
                    <mxGeometry x="2780" y="513.5" width="80" height="80" as="geometry"/>
                </mxCell>
                <mxCell id="bkZHaeIWT0W7Z0gGQJD7-32" value="&lt;h1&gt;&lt;span&gt;Common dapp&lt;/span&gt;&lt;/h1&gt;&lt;div&gt;프로젝트 내 블록체인 비율이 가장 높은 탈중앙화 방식 dapp 아키텍처&amp;nbsp;&lt;/div&gt;" style="text;html=1;strokeColor=none;fillColor=none;spacing=5;spacingTop=-20;whiteSpace=wrap;overflow=hidden;rounded=0;" parent="1" vertex="1">
                    <mxGeometry x="1310" y="68.5" width="190" height="120" as="geometry"/>
                </mxCell>
                <mxCell id="bkZHaeIWT0W7Z0gGQJD7-42" value="&lt;h1&gt;&lt;span&gt;Capp-ish&lt;/span&gt;&lt;/h1&gt;&lt;div&gt;backend + signature // enterprise wallet&lt;/div&gt;" style="text;html=1;strokeColor=none;fillColor=none;spacing=5;spacingTop=-20;whiteSpace=wrap;overflow=hidden;rounded=0;" parent="1" vertex="1">
                    <mxGeometry x="1220" y="880" width="190" height="120" as="geometry"/>
                </mxCell>
                <mxCell id="bkZHaeIWT0W7Z0gGQJD7-53" value="&lt;h1&gt;&lt;span&gt;Capp-like&lt;/span&gt;&lt;/h1&gt;&lt;div&gt;프로젝트 내 블록체인 비율이 가장 높은 탈중앙화 방식 dapp 아키텍처&amp;nbsp;&lt;/div&gt;" style="text;html=1;strokeColor=none;fillColor=none;spacing=5;spacingTop=-20;whiteSpace=wrap;overflow=hidden;rounded=0;" parent="1" vertex="1">
                    <mxGeometry x="70" y="1708" width="190" height="120" as="geometry"/>
                </mxCell>
                <mxCell id="URHFPd7x1FeZMZEvrIZl-26" style="edgeStyle=orthogonalEdgeStyle;rounded=0;orthogonalLoop=1;jettySize=auto;html=1;entryX=1;entryY=0.5;entryDx=0;entryDy=0;" parent="1" source="URHFPd7x1FeZMZEvrIZl-8" target="bkZHaeIWT0W7Z0gGQJD7-8" edge="1">
                    <mxGeometry relative="1" as="geometry"/>
                </mxCell>
                <mxCell id="URHFPd7x1FeZMZEvrIZl-8" value="체인링크&lt;br&gt;네트워크" style="whiteSpace=wrap;html=1;aspect=fixed;" parent="1" vertex="1">
                    <mxGeometry x="820" y="348.5" width="80" height="80" as="geometry"/>
                </mxCell>
                <mxCell id="URHFPd7x1FeZMZEvrIZl-27" value="" style="edgeStyle=orthogonalEdgeStyle;rounded=0;orthogonalLoop=1;jettySize=auto;html=1;" parent="1" source="URHFPd7x1FeZMZEvrIZl-29" target="URHFPd7x1FeZMZEvrIZl-32" edge="1">
                    <mxGeometry relative="1" as="geometry"/>
                </mxCell>
                <mxCell id="URHFPd7x1FeZMZEvrIZl-47" style="edgeStyle=orthogonalEdgeStyle;rounded=0;orthogonalLoop=1;jettySize=auto;html=1;entryX=0.5;entryY=0;entryDx=0;entryDy=0;" parent="1" source="URHFPd7x1FeZMZEvrIZl-29" target="URHFPd7x1FeZMZEvrIZl-45" edge="1">
                    <mxGeometry relative="1" as="geometry"/>
                </mxCell>
                <mxCell id="URHFPd7x1FeZMZEvrIZl-29" value="프론트 엔드" style="whiteSpace=wrap;html=1;aspect=fixed;" parent="1" vertex="1">
                    <mxGeometry x="1310" y="513" width="80" height="80" as="geometry"/>
                </mxCell>
                <mxCell id="URHFPd7x1FeZMZEvrIZl-30" style="edgeStyle=orthogonalEdgeStyle;rounded=0;orthogonalLoop=1;jettySize=auto;html=1;" parent="1" source="URHFPd7x1FeZMZEvrIZl-32" target="URHFPd7x1FeZMZEvrIZl-29" edge="1">
                    <mxGeometry relative="1" as="geometry"/>
                </mxCell>
                <mxCell id="URHFPd7x1FeZMZEvrIZl-31" style="edgeStyle=orthogonalEdgeStyle;rounded=0;orthogonalLoop=1;jettySize=auto;html=1;entryX=0.5;entryY=1;entryDx=0;entryDy=0;" parent="1" source="URHFPd7x1FeZMZEvrIZl-32" target="URHFPd7x1FeZMZEvrIZl-36" edge="1">
                    <mxGeometry relative="1" as="geometry"/>
                </mxCell>
                <mxCell id="URHFPd7x1FeZMZEvrIZl-32" value="사용자 지갑" style="whiteSpace=wrap;html=1;aspect=fixed;" parent="1" vertex="1">
                    <mxGeometry x="1310" y="371.5" width="80" height="80" as="geometry"/>
                </mxCell>
                <mxCell id="URHFPd7x1FeZMZEvrIZl-33" style="edgeStyle=orthogonalEdgeStyle;rounded=0;orthogonalLoop=1;jettySize=auto;html=1;" parent="1" source="URHFPd7x1FeZMZEvrIZl-34" target="URHFPd7x1FeZMZEvrIZl-29" edge="1">
                    <mxGeometry relative="1" as="geometry">
                        <Array as="points">
                            <mxPoint x="1547.5" y="553.5"/>
                            <mxPoint x="1547.5" y="553.5"/>
                        </Array>
                    </mxGeometry>
                </mxCell>
                <mxCell id="URHFPd7x1FeZMZEvrIZl-55" style="edgeStyle=orthogonalEdgeStyle;rounded=0;orthogonalLoop=1;jettySize=auto;html=1;entryX=0;entryY=0.5;entryDx=0;entryDy=0;" parent="1" source="URHFPd7x1FeZMZEvrIZl-34" target="URHFPd7x1FeZMZEvrIZl-41" edge="1">
                    <mxGeometry relative="1" as="geometry">
                        <Array as="points">
                            <mxPoint x="1639" y="660"/>
                        </Array>
                    </mxGeometry>
                </mxCell>
                <mxCell id="URHFPd7x1FeZMZEvrIZl-34" value="스마트&lt;br&gt;컨트랙트" style="whiteSpace=wrap;html=1;aspect=fixed;" parent="1" vertex="1">
                    <mxGeometry x="1599" y="515" width="80" height="80" as="geometry"/>
                </mxCell>
                <mxCell id="URHFPd7x1FeZMZEvrIZl-35" style="edgeStyle=orthogonalEdgeStyle;rounded=0;orthogonalLoop=1;jettySize=auto;html=1;entryX=0;entryY=0.5;entryDx=0;entryDy=0;" parent="1" source="URHFPd7x1FeZMZEvrIZl-36" edge="1">
                    <mxGeometry relative="1" as="geometry">
                        <mxPoint x="1600" y="258.5" as="targetPoint"/>
                    </mxGeometry>
                </mxCell>
                <mxCell id="URHFPd7x1FeZMZEvrIZl-36" value="중간자 노드" style="whiteSpace=wrap;html=1;aspect=fixed;" parent="1" vertex="1">
                    <mxGeometry x="1310" y="228.5" width="80" height="80" as="geometry"/>
                </mxCell>
                <mxCell id="URHFPd7x1FeZMZEvrIZl-37" style="edgeStyle=orthogonalEdgeStyle;rounded=0;orthogonalLoop=1;jettySize=auto;html=1;entryX=0.5;entryY=0;entryDx=0;entryDy=0;" parent="1" target="URHFPd7x1FeZMZEvrIZl-34" edge="1">
                    <mxGeometry relative="1" as="geometry">
                        <mxPoint x="1640" y="298.5" as="sourcePoint"/>
                    </mxGeometry>
                </mxCell>
                <mxCell id="URHFPd7x1FeZMZEvrIZl-38" style="edgeStyle=orthogonalEdgeStyle;rounded=0;orthogonalLoop=1;jettySize=auto;html=1;entryX=1;entryY=0.5;entryDx=0;entryDy=0;" parent="1" source="URHFPd7x1FeZMZEvrIZl-39" target="URHFPd7x1FeZMZEvrIZl-34" edge="1">
                    <mxGeometry relative="1" as="geometry"/>
                </mxCell>
                <mxCell id="URHFPd7x1FeZMZEvrIZl-39" value="오라클" style="whiteSpace=wrap;html=1;aspect=fixed;" parent="1" vertex="1">
                    <mxGeometry x="1742" y="367" width="80" height="80" as="geometry"/>
                </mxCell>
                <mxCell id="URHFPd7x1FeZMZEvrIZl-52" style="edgeStyle=orthogonalEdgeStyle;rounded=0;orthogonalLoop=1;jettySize=auto;html=1;entryX=0.5;entryY=1;entryDx=0;entryDy=0;" parent="1" source="URHFPd7x1FeZMZEvrIZl-41" target="URHFPd7x1FeZMZEvrIZl-34" edge="1">
                    <mxGeometry relative="1" as="geometry"/>
                </mxCell>
                <mxCell id="URHFPd7x1FeZMZEvrIZl-41" value="분산 파일&lt;br&gt;시스템" style="whiteSpace=wrap;html=1;aspect=fixed;" parent="1" vertex="1">
                    <mxGeometry x="1754" y="620" width="80" height="80" as="geometry"/>
                </mxCell>
                <mxCell id="URHFPd7x1FeZMZEvrIZl-42" style="edgeStyle=orthogonalEdgeStyle;rounded=0;orthogonalLoop=1;jettySize=auto;html=1;entryX=1;entryY=0.5;entryDx=0;entryDy=0;" parent="1" source="URHFPd7x1FeZMZEvrIZl-43" target="URHFPd7x1FeZMZEvrIZl-39" edge="1">
                    <mxGeometry relative="1" as="geometry"/>
                </mxCell>
                <mxCell id="URHFPd7x1FeZMZEvrIZl-43" value="체인링크&lt;br&gt;네트워크" style="whiteSpace=wrap;html=1;aspect=fixed;" parent="1" vertex="1">
                    <mxGeometry x="1907.5" y="367" width="80" height="80" as="geometry"/>
                </mxCell>
                <mxCell id="URHFPd7x1FeZMZEvrIZl-44" value="블록체인 &lt;br&gt;네트워크" style="whiteSpace=wrap;html=1;aspect=fixed;" parent="1" vertex="1">
                    <mxGeometry x="1599" y="218.5" width="80" height="80" as="geometry"/>
                </mxCell>
                <mxCell id="URHFPd7x1FeZMZEvrIZl-46" style="edgeStyle=orthogonalEdgeStyle;rounded=0;orthogonalLoop=1;jettySize=auto;html=1;entryX=0.5;entryY=1;entryDx=0;entryDy=0;" parent="1" source="URHFPd7x1FeZMZEvrIZl-45" target="URHFPd7x1FeZMZEvrIZl-29" edge="1">
                    <mxGeometry relative="1" as="geometry"/>
                </mxCell>
                <mxCell id="URHFPd7x1FeZMZEvrIZl-45" value="서버" style="whiteSpace=wrap;html=1;aspect=fixed;" parent="1" vertex="1">
                    <mxGeometry x="1310" y="660" width="80" height="80" as="geometry"/>
                </mxCell>
                <mxCell id="URHFPd7x1FeZMZEvrIZl-54" value="" style="endArrow=none;dashed=1;html=1;dashPattern=1 3;strokeWidth=2;rounded=0;entryX=0;entryY=0.5;entryDx=0;entryDy=0;exitX=1;exitY=0.5;exitDx=0;exitDy=0;" parent="1" source="URHFPd7x1FeZMZEvrIZl-29" target="URHFPd7x1FeZMZEvrIZl-41" edge="1">
                    <mxGeometry width="50" height="50" relative="1" as="geometry">
                        <mxPoint x="1740" y="540" as="sourcePoint"/>
                        <mxPoint x="1790" y="490" as="targetPoint"/>
                    </mxGeometry>
                </mxCell>
                <mxCell id="URHFPd7x1FeZMZEvrIZl-56" value="" style="edgeStyle=orthogonalEdgeStyle;rounded=0;orthogonalLoop=1;jettySize=auto;html=1;" parent="1" source="URHFPd7x1FeZMZEvrIZl-58" target="URHFPd7x1FeZMZEvrIZl-61" edge="1">
                    <mxGeometry relative="1" as="geometry"/>
                </mxCell>
                <mxCell id="URHFPd7x1FeZMZEvrIZl-57" style="edgeStyle=orthogonalEdgeStyle;rounded=0;orthogonalLoop=1;jettySize=auto;html=1;entryX=0.5;entryY=0;entryDx=0;entryDy=0;" parent="1" source="URHFPd7x1FeZMZEvrIZl-58" target="URHFPd7x1FeZMZEvrIZl-76" edge="1">
                    <mxGeometry relative="1" as="geometry"/>
                </mxCell>
                <mxCell id="URHFPd7x1FeZMZEvrIZl-58" value="프론트 엔드" style="whiteSpace=wrap;html=1;aspect=fixed;" parent="1" vertex="1">
                    <mxGeometry x="213.75" y="1314.5" width="80" height="80" as="geometry"/>
                </mxCell>
                <mxCell id="URHFPd7x1FeZMZEvrIZl-59" style="edgeStyle=orthogonalEdgeStyle;rounded=0;orthogonalLoop=1;jettySize=auto;html=1;" parent="1" source="URHFPd7x1FeZMZEvrIZl-61" target="URHFPd7x1FeZMZEvrIZl-58" edge="1">
                    <mxGeometry relative="1" as="geometry"/>
                </mxCell>
                <mxCell id="URHFPd7x1FeZMZEvrIZl-60" style="edgeStyle=orthogonalEdgeStyle;rounded=0;orthogonalLoop=1;jettySize=auto;html=1;entryX=0.5;entryY=1;entryDx=0;entryDy=0;" parent="1" source="URHFPd7x1FeZMZEvrIZl-61" target="URHFPd7x1FeZMZEvrIZl-66" edge="1">
                    <mxGeometry relative="1" as="geometry"/>
                </mxCell>
                <mxCell id="URHFPd7x1FeZMZEvrIZl-61" value="사용자 지갑" style="whiteSpace=wrap;html=1;aspect=fixed;" parent="1" vertex="1">
                    <mxGeometry x="213.75" y="1173" width="80" height="80" as="geometry"/>
                </mxCell>
                <mxCell id="URHFPd7x1FeZMZEvrIZl-63" style="edgeStyle=orthogonalEdgeStyle;rounded=0;orthogonalLoop=1;jettySize=auto;html=1;entryX=0;entryY=0.5;entryDx=0;entryDy=0;" parent="1" source="URHFPd7x1FeZMZEvrIZl-64" target="URHFPd7x1FeZMZEvrIZl-71" edge="1">
                    <mxGeometry relative="1" as="geometry">
                        <Array as="points">
                            <mxPoint x="542.75" y="1461.5"/>
                        </Array>
                    </mxGeometry>
                </mxCell>
                <mxCell id="URHFPd7x1FeZMZEvrIZl-85" style="edgeStyle=orthogonalEdgeStyle;rounded=0;orthogonalLoop=1;jettySize=auto;html=1;entryX=1;entryY=0.25;entryDx=0;entryDy=0;exitX=0;exitY=0.5;exitDx=0;exitDy=0;" parent="1" source="URHFPd7x1FeZMZEvrIZl-64" target="URHFPd7x1FeZMZEvrIZl-76" edge="1">
                    <mxGeometry relative="1" as="geometry">
                        <mxPoint x="500" y="1400" as="sourcePoint"/>
                    </mxGeometry>
                </mxCell>
                <mxCell id="URHFPd7x1FeZMZEvrIZl-64" value="스마트&lt;br&gt;컨트랙트" style="whiteSpace=wrap;html=1;aspect=fixed;" parent="1" vertex="1">
                    <mxGeometry x="502.75" y="1316.5" width="80" height="80" as="geometry"/>
                </mxCell>
                <mxCell id="URHFPd7x1FeZMZEvrIZl-65" style="edgeStyle=orthogonalEdgeStyle;rounded=0;orthogonalLoop=1;jettySize=auto;html=1;entryX=0;entryY=0.5;entryDx=0;entryDy=0;" parent="1" source="URHFPd7x1FeZMZEvrIZl-66" edge="1">
                    <mxGeometry relative="1" as="geometry">
                        <mxPoint x="503.75" y="1060" as="targetPoint"/>
                    </mxGeometry>
                </mxCell>
                <mxCell id="URHFPd7x1FeZMZEvrIZl-66" value="중간자 노드" style="whiteSpace=wrap;html=1;aspect=fixed;" parent="1" vertex="1">
                    <mxGeometry x="213.75" y="1030" width="80" height="80" as="geometry"/>
                </mxCell>
                <mxCell id="URHFPd7x1FeZMZEvrIZl-67" style="edgeStyle=orthogonalEdgeStyle;rounded=0;orthogonalLoop=1;jettySize=auto;html=1;entryX=0.5;entryY=0;entryDx=0;entryDy=0;" parent="1" target="URHFPd7x1FeZMZEvrIZl-64" edge="1">
                    <mxGeometry relative="1" as="geometry">
                        <mxPoint x="543.75" y="1100" as="sourcePoint"/>
                    </mxGeometry>
                </mxCell>
                <mxCell id="URHFPd7x1FeZMZEvrIZl-68" style="edgeStyle=orthogonalEdgeStyle;rounded=0;orthogonalLoop=1;jettySize=auto;html=1;entryX=1;entryY=0.5;entryDx=0;entryDy=0;" parent="1" source="URHFPd7x1FeZMZEvrIZl-69" target="URHFPd7x1FeZMZEvrIZl-64" edge="1">
                    <mxGeometry relative="1" as="geometry"/>
                </mxCell>
                <mxCell id="URHFPd7x1FeZMZEvrIZl-69" value="오라클" style="whiteSpace=wrap;html=1;aspect=fixed;" parent="1" vertex="1">
                    <mxGeometry x="645.75" y="1168.5" width="80" height="80" as="geometry"/>
                </mxCell>
                <mxCell id="URHFPd7x1FeZMZEvrIZl-70" style="edgeStyle=orthogonalEdgeStyle;rounded=0;orthogonalLoop=1;jettySize=auto;html=1;entryX=0.5;entryY=1;entryDx=0;entryDy=0;" parent="1" source="URHFPd7x1FeZMZEvrIZl-71" target="URHFPd7x1FeZMZEvrIZl-64" edge="1">
                    <mxGeometry relative="1" as="geometry"/>
                </mxCell>
                <mxCell id="URHFPd7x1FeZMZEvrIZl-71" value="분산 파일&lt;br&gt;시스템" style="whiteSpace=wrap;html=1;aspect=fixed;" parent="1" vertex="1">
                    <mxGeometry x="657.75" y="1421.5" width="80" height="80" as="geometry"/>
                </mxCell>
                <mxCell id="URHFPd7x1FeZMZEvrIZl-72" style="edgeStyle=orthogonalEdgeStyle;rounded=0;orthogonalLoop=1;jettySize=auto;html=1;entryX=1;entryY=0.5;entryDx=0;entryDy=0;" parent="1" source="URHFPd7x1FeZMZEvrIZl-73" target="URHFPd7x1FeZMZEvrIZl-69" edge="1">
                    <mxGeometry relative="1" as="geometry"/>
                </mxCell>
                <mxCell id="URHFPd7x1FeZMZEvrIZl-73" value="체인링크&lt;br&gt;네트워크" style="whiteSpace=wrap;html=1;aspect=fixed;" parent="1" vertex="1">
                    <mxGeometry x="811.25" y="1168.5" width="80" height="80" as="geometry"/>
                </mxCell>
                <mxCell id="URHFPd7x1FeZMZEvrIZl-74" value="블록체인 &lt;br&gt;네트워크" style="whiteSpace=wrap;html=1;aspect=fixed;" parent="1" vertex="1">
                    <mxGeometry x="502.75" y="1020" width="80" height="80" as="geometry"/>
                </mxCell>
                <mxCell id="URHFPd7x1FeZMZEvrIZl-75" style="edgeStyle=orthogonalEdgeStyle;rounded=0;orthogonalLoop=1;jettySize=auto;html=1;entryX=0.5;entryY=1;entryDx=0;entryDy=0;" parent="1" source="URHFPd7x1FeZMZEvrIZl-76" target="URHFPd7x1FeZMZEvrIZl-58" edge="1">
                    <mxGeometry relative="1" as="geometry"/>
                </mxCell>
                <mxCell id="URHFPd7x1FeZMZEvrIZl-78" style="edgeStyle=orthogonalEdgeStyle;rounded=0;orthogonalLoop=1;jettySize=auto;html=1;entryX=0;entryY=1;entryDx=0;entryDy=0;" parent="1" source="URHFPd7x1FeZMZEvrIZl-76" target="URHFPd7x1FeZMZEvrIZl-64" edge="1">
                    <mxGeometry relative="1" as="geometry"/>
                </mxCell>
                <mxCell id="URHFPd7x1FeZMZEvrIZl-76" value="서버" style="whiteSpace=wrap;html=1;aspect=fixed;" parent="1" vertex="1">
                    <mxGeometry x="213.75" y="1461.5" width="80" height="80" as="geometry"/>
                </mxCell>
                <mxCell id="URHFPd7x1FeZMZEvrIZl-77" value="" style="endArrow=none;dashed=1;html=1;dashPattern=1 3;strokeWidth=2;rounded=0;entryX=0;entryY=0.5;entryDx=0;entryDy=0;exitX=1;exitY=0.5;exitDx=0;exitDy=0;" parent="1" source="URHFPd7x1FeZMZEvrIZl-58" target="URHFPd7x1FeZMZEvrIZl-71" edge="1">
                    <mxGeometry width="50" height="50" relative="1" as="geometry">
                        <mxPoint x="643.75" y="1341.5" as="sourcePoint"/>
                        <mxPoint x="693.75" y="1291.5" as="targetPoint"/>
                    </mxGeometry>
                </mxCell>
                <mxCell id="URHFPd7x1FeZMZEvrIZl-86" value="" style="edgeStyle=orthogonalEdgeStyle;rounded=0;orthogonalLoop=1;jettySize=auto;html=1;" parent="1" source="URHFPd7x1FeZMZEvrIZl-88" target="URHFPd7x1FeZMZEvrIZl-91" edge="1">
                    <mxGeometry relative="1" as="geometry"/>
                </mxCell>
                <mxCell id="URHFPd7x1FeZMZEvrIZl-87" style="edgeStyle=orthogonalEdgeStyle;rounded=0;orthogonalLoop=1;jettySize=auto;html=1;entryX=0.5;entryY=0;entryDx=0;entryDy=0;" parent="1" source="URHFPd7x1FeZMZEvrIZl-88" target="URHFPd7x1FeZMZEvrIZl-107" edge="1">
                    <mxGeometry relative="1" as="geometry"/>
                </mxCell>
                <mxCell id="URHFPd7x1FeZMZEvrIZl-88" value="프론트 엔드" style="whiteSpace=wrap;html=1;aspect=fixed;" parent="1" vertex="1">
                    <mxGeometry x="1490" y="1284.5" width="80" height="80" as="geometry"/>
                </mxCell>
                <mxCell id="URHFPd7x1FeZMZEvrIZl-89" style="edgeStyle=orthogonalEdgeStyle;rounded=0;orthogonalLoop=1;jettySize=auto;html=1;" parent="1" source="URHFPd7x1FeZMZEvrIZl-91" target="URHFPd7x1FeZMZEvrIZl-88" edge="1">
                    <mxGeometry relative="1" as="geometry"/>
                </mxCell>
                <mxCell id="URHFPd7x1FeZMZEvrIZl-90" style="edgeStyle=orthogonalEdgeStyle;rounded=0;orthogonalLoop=1;jettySize=auto;html=1;entryX=0.5;entryY=1;entryDx=0;entryDy=0;" parent="1" source="URHFPd7x1FeZMZEvrIZl-91" target="URHFPd7x1FeZMZEvrIZl-96" edge="1">
                    <mxGeometry relative="1" as="geometry"/>
                </mxCell>
                <mxCell id="URHFPd7x1FeZMZEvrIZl-91" value="사용자 지갑" style="whiteSpace=wrap;html=1;aspect=fixed;" parent="1" vertex="1">
                    <mxGeometry x="1490" y="1143" width="80" height="80" as="geometry"/>
                </mxCell>
                <mxCell id="URHFPd7x1FeZMZEvrIZl-92" style="edgeStyle=orthogonalEdgeStyle;rounded=0;orthogonalLoop=1;jettySize=auto;html=1;entryX=0;entryY=0.5;entryDx=0;entryDy=0;" parent="1" source="URHFPd7x1FeZMZEvrIZl-94" target="URHFPd7x1FeZMZEvrIZl-101" edge="1">
                    <mxGeometry relative="1" as="geometry">
                        <Array as="points">
                            <mxPoint x="1819" y="1431.5"/>
                        </Array>
                    </mxGeometry>
                </mxCell>
                <mxCell id="URHFPd7x1FeZMZEvrIZl-93" style="edgeStyle=orthogonalEdgeStyle;rounded=0;orthogonalLoop=1;jettySize=auto;html=1;entryX=1;entryY=0.25;entryDx=0;entryDy=0;exitX=0;exitY=0.5;exitDx=0;exitDy=0;" parent="1" source="URHFPd7x1FeZMZEvrIZl-94" target="URHFPd7x1FeZMZEvrIZl-107" edge="1">
                    <mxGeometry relative="1" as="geometry">
                        <mxPoint x="1776.25" y="1370" as="sourcePoint"/>
                    </mxGeometry>
                </mxCell>
                <mxCell id="URHFPd7x1FeZMZEvrIZl-94" value="스마트&lt;br&gt;컨트랙트" style="whiteSpace=wrap;html=1;aspect=fixed;" parent="1" vertex="1">
                    <mxGeometry x="1779" y="1286.5" width="80" height="80" as="geometry"/>
                </mxCell>
                <mxCell id="URHFPd7x1FeZMZEvrIZl-95" style="edgeStyle=orthogonalEdgeStyle;rounded=0;orthogonalLoop=1;jettySize=auto;html=1;entryX=0;entryY=0.5;entryDx=0;entryDy=0;" parent="1" source="URHFPd7x1FeZMZEvrIZl-96" edge="1">
                    <mxGeometry relative="1" as="geometry">
                        <mxPoint x="1780" y="1030" as="targetPoint"/>
                    </mxGeometry>
                </mxCell>
                <mxCell id="URHFPd7x1FeZMZEvrIZl-96" value="중간자 노드" style="whiteSpace=wrap;html=1;aspect=fixed;" parent="1" vertex="1">
                    <mxGeometry x="1490" y="1000" width="80" height="80" as="geometry"/>
                </mxCell>
                <mxCell id="URHFPd7x1FeZMZEvrIZl-97" style="edgeStyle=orthogonalEdgeStyle;rounded=0;orthogonalLoop=1;jettySize=auto;html=1;entryX=0.5;entryY=0;entryDx=0;entryDy=0;" parent="1" target="URHFPd7x1FeZMZEvrIZl-94" edge="1">
                    <mxGeometry relative="1" as="geometry">
                        <mxPoint x="1820" y="1070" as="sourcePoint"/>
                    </mxGeometry>
                </mxCell>
                <mxCell id="URHFPd7x1FeZMZEvrIZl-98" style="edgeStyle=orthogonalEdgeStyle;rounded=0;orthogonalLoop=1;jettySize=auto;html=1;entryX=1;entryY=0.5;entryDx=0;entryDy=0;" parent="1" source="URHFPd7x1FeZMZEvrIZl-99" target="URHFPd7x1FeZMZEvrIZl-94" edge="1">
                    <mxGeometry relative="1" as="geometry"/>
                </mxCell>
                <mxCell id="URHFPd7x1FeZMZEvrIZl-99" value="오라클" style="whiteSpace=wrap;html=1;aspect=fixed;" parent="1" vertex="1">
                    <mxGeometry x="1922" y="1138.5" width="80" height="80" as="geometry"/>
                </mxCell>
                <mxCell id="URHFPd7x1FeZMZEvrIZl-100" style="edgeStyle=orthogonalEdgeStyle;rounded=0;orthogonalLoop=1;jettySize=auto;html=1;entryX=0.5;entryY=1;entryDx=0;entryDy=0;" parent="1" source="URHFPd7x1FeZMZEvrIZl-101" target="URHFPd7x1FeZMZEvrIZl-94" edge="1">
                    <mxGeometry relative="1" as="geometry"/>
                </mxCell>
                <mxCell id="URHFPd7x1FeZMZEvrIZl-101" value="분산 파일&lt;br&gt;시스템" style="whiteSpace=wrap;html=1;aspect=fixed;" parent="1" vertex="1">
                    <mxGeometry x="1934" y="1391.5" width="80" height="80" as="geometry"/>
                </mxCell>
                <mxCell id="URHFPd7x1FeZMZEvrIZl-102" style="edgeStyle=orthogonalEdgeStyle;rounded=0;orthogonalLoop=1;jettySize=auto;html=1;entryX=1;entryY=0.5;entryDx=0;entryDy=0;" parent="1" source="URHFPd7x1FeZMZEvrIZl-103" target="URHFPd7x1FeZMZEvrIZl-99" edge="1">
                    <mxGeometry relative="1" as="geometry"/>
                </mxCell>
                <mxCell id="URHFPd7x1FeZMZEvrIZl-103" value="체인링크&lt;br&gt;네트워크" style="whiteSpace=wrap;html=1;aspect=fixed;" parent="1" vertex="1">
                    <mxGeometry x="2087.5" y="1138.5" width="80" height="80" as="geometry"/>
                </mxCell>
                <mxCell id="URHFPd7x1FeZMZEvrIZl-104" value="블록체인 &lt;br&gt;네트워크" style="whiteSpace=wrap;html=1;aspect=fixed;" parent="1" vertex="1">
                    <mxGeometry x="1779" y="990" width="80" height="80" as="geometry"/>
                </mxCell>
                <mxCell id="URHFPd7x1FeZMZEvrIZl-105" style="edgeStyle=orthogonalEdgeStyle;rounded=0;orthogonalLoop=1;jettySize=auto;html=1;entryX=0.5;entryY=1;entryDx=0;entryDy=0;" parent="1" source="URHFPd7x1FeZMZEvrIZl-107" target="URHFPd7x1FeZMZEvrIZl-88" edge="1">
                    <mxGeometry relative="1" as="geometry"/>
                </mxCell>
                <mxCell id="URHFPd7x1FeZMZEvrIZl-106" style="edgeStyle=orthogonalEdgeStyle;rounded=0;orthogonalLoop=1;jettySize=auto;html=1;entryX=0;entryY=1;entryDx=0;entryDy=0;" parent="1" source="URHFPd7x1FeZMZEvrIZl-107" target="URHFPd7x1FeZMZEvrIZl-94" edge="1">
                    <mxGeometry relative="1" as="geometry"/>
                </mxCell>
                <mxCell id="URHFPd7x1FeZMZEvrIZl-111" style="edgeStyle=orthogonalEdgeStyle;rounded=0;orthogonalLoop=1;jettySize=auto;html=1;entryX=1;entryY=0.5;entryDx=0;entryDy=0;" parent="1" source="URHFPd7x1FeZMZEvrIZl-107" target="URHFPd7x1FeZMZEvrIZl-109" edge="1">
                    <mxGeometry relative="1" as="geometry"/>
                </mxCell>
                <mxCell id="URHFPd7x1FeZMZEvrIZl-107" value="서버" style="whiteSpace=wrap;html=1;aspect=fixed;" parent="1" vertex="1">
                    <mxGeometry x="1490" y="1431.5" width="80" height="80" as="geometry"/>
                </mxCell>
                <mxCell id="URHFPd7x1FeZMZEvrIZl-108" value="" style="endArrow=none;dashed=1;html=1;dashPattern=1 3;strokeWidth=2;rounded=0;entryX=0;entryY=0.5;entryDx=0;entryDy=0;exitX=1;exitY=0.5;exitDx=0;exitDy=0;" parent="1" source="URHFPd7x1FeZMZEvrIZl-88" target="URHFPd7x1FeZMZEvrIZl-101" edge="1">
                    <mxGeometry width="50" height="50" relative="1" as="geometry">
                        <mxPoint x="1920" y="1311.5" as="sourcePoint"/>
                        <mxPoint x="1970" y="1261.5" as="targetPoint"/>
                    </mxGeometry>
                </mxCell>
                <mxCell id="URHFPd7x1FeZMZEvrIZl-112" style="edgeStyle=orthogonalEdgeStyle;rounded=0;orthogonalLoop=1;jettySize=auto;html=1;" parent="1" source="URHFPd7x1FeZMZEvrIZl-109" edge="1">
                    <mxGeometry relative="1" as="geometry">
                        <mxPoint x="1490" y="1471.5" as="targetPoint"/>
                    </mxGeometry>
                </mxCell>
                <mxCell id="URHFPd7x1FeZMZEvrIZl-113" style="edgeStyle=orthogonalEdgeStyle;rounded=0;orthogonalLoop=1;jettySize=auto;html=1;entryX=0.921;entryY=0.994;entryDx=0;entryDy=0;entryPerimeter=0;" parent="1" source="URHFPd7x1FeZMZEvrIZl-109" target="URHFPd7x1FeZMZEvrIZl-94" edge="1">
                    <mxGeometry relative="1" as="geometry">
                        <Array as="points">
                            <mxPoint x="1400" y="1590"/>
                            <mxPoint x="1853" y="1590"/>
                        </Array>
                    </mxGeometry>
                </mxCell>
                <mxCell id="URHFPd7x1FeZMZEvrIZl-109" value="기업용 지갑" style="whiteSpace=wrap;html=1;aspect=fixed;" parent="1" vertex="1">
                    <mxGeometry x="1360" y="1431.5" width="80" height="80" as="geometry"/>
                </mxCell>
                <mxCell id="URHFPd7x1FeZMZEvrIZl-115" style="edgeStyle=orthogonalEdgeStyle;rounded=0;orthogonalLoop=1;jettySize=auto;html=1;entryX=0.5;entryY=0;entryDx=0;entryDy=0;" parent="1" source="URHFPd7x1FeZMZEvrIZl-116" target="URHFPd7x1FeZMZEvrIZl-136" edge="1">
                    <mxGeometry relative="1" as="geometry"/>
                </mxCell>
                <mxCell id="URHFPd7x1FeZMZEvrIZl-116" value="프론트 엔드" style="whiteSpace=wrap;html=1;aspect=fixed;" parent="1" vertex="1">
                    <mxGeometry x="343.75" y="1970" width="80" height="80" as="geometry"/>
                </mxCell>
                <mxCell id="URHFPd7x1FeZMZEvrIZl-121" style="edgeStyle=orthogonalEdgeStyle;rounded=0;orthogonalLoop=1;jettySize=auto;html=1;entryX=1;entryY=0.25;entryDx=0;entryDy=0;exitX=0;exitY=0.5;exitDx=0;exitDy=0;" parent="1" source="URHFPd7x1FeZMZEvrIZl-122" target="URHFPd7x1FeZMZEvrIZl-136" edge="1">
                    <mxGeometry relative="1" as="geometry">
                        <mxPoint x="630" y="2180" as="sourcePoint"/>
                    </mxGeometry>
                </mxCell>
                <mxCell id="URHFPd7x1FeZMZEvrIZl-146" style="edgeStyle=orthogonalEdgeStyle;rounded=0;orthogonalLoop=1;jettySize=auto;html=1;entryX=1;entryY=0.5;entryDx=0;entryDy=0;" parent="1" source="URHFPd7x1FeZMZEvrIZl-122" target="URHFPd7x1FeZMZEvrIZl-129" edge="1">
                    <mxGeometry relative="1" as="geometry">
                        <Array as="points">
                            <mxPoint x="520" y="2110"/>
                            <mxPoint x="520" y="1868"/>
                        </Array>
                    </mxGeometry>
                </mxCell>
                <mxCell id="URHFPd7x1FeZMZEvrIZl-147" style="edgeStyle=orthogonalEdgeStyle;rounded=0;orthogonalLoop=1;jettySize=auto;html=1;entryX=0.75;entryY=1;entryDx=0;entryDy=0;" parent="1" source="URHFPd7x1FeZMZEvrIZl-122" target="URHFPd7x1FeZMZEvrIZl-140" edge="1">
                    <mxGeometry relative="1" as="geometry">
                        <Array as="points">
                            <mxPoint x="673" y="2380"/>
                            <mxPoint x="274" y="2380"/>
                        </Array>
                    </mxGeometry>
                </mxCell>
                <mxCell id="URHFPd7x1FeZMZEvrIZl-122" value="스마트&lt;br&gt;컨트랙트" style="whiteSpace=wrap;html=1;aspect=fixed;" parent="1" vertex="1">
                    <mxGeometry x="632.75" y="2096.5" width="80" height="80" as="geometry"/>
                </mxCell>
                <mxCell id="URHFPd7x1FeZMZEvrIZl-125" style="edgeStyle=orthogonalEdgeStyle;rounded=0;orthogonalLoop=1;jettySize=auto;html=1;entryX=0.5;entryY=0;entryDx=0;entryDy=0;" parent="1" target="URHFPd7x1FeZMZEvrIZl-122" edge="1">
                    <mxGeometry relative="1" as="geometry">
                        <mxPoint x="673.75" y="1880" as="sourcePoint"/>
                    </mxGeometry>
                </mxCell>
                <mxCell id="URHFPd7x1FeZMZEvrIZl-126" style="edgeStyle=orthogonalEdgeStyle;rounded=0;orthogonalLoop=1;jettySize=auto;html=1;entryX=1;entryY=0.5;entryDx=0;entryDy=0;" parent="1" source="URHFPd7x1FeZMZEvrIZl-127" target="URHFPd7x1FeZMZEvrIZl-122" edge="1">
                    <mxGeometry relative="1" as="geometry"/>
                </mxCell>
                <mxCell id="URHFPd7x1FeZMZEvrIZl-127" value="오라클" style="whiteSpace=wrap;html=1;aspect=fixed;" parent="1" vertex="1">
                    <mxGeometry x="775.75" y="1948.5" width="80" height="80" as="geometry"/>
                </mxCell>
                <mxCell id="URHFPd7x1FeZMZEvrIZl-142" style="edgeStyle=orthogonalEdgeStyle;rounded=0;orthogonalLoop=1;jettySize=auto;html=1;entryX=0;entryY=0.25;entryDx=0;entryDy=0;" parent="1" source="URHFPd7x1FeZMZEvrIZl-129" target="URHFPd7x1FeZMZEvrIZl-122" edge="1">
                    <mxGeometry relative="1" as="geometry">
                        <Array as="points">
                            <mxPoint x="520" y="1868"/>
                            <mxPoint x="520" y="2110"/>
                            <mxPoint x="633" y="2110"/>
                        </Array>
                    </mxGeometry>
                </mxCell>
                <mxCell id="URHFPd7x1FeZMZEvrIZl-129" value="분산 파일&lt;br&gt;시스템" style="whiteSpace=wrap;html=1;aspect=fixed;" parent="1" vertex="1">
                    <mxGeometry x="343.75" y="1828" width="80" height="80" as="geometry"/>
                </mxCell>
                <mxCell id="URHFPd7x1FeZMZEvrIZl-130" style="edgeStyle=orthogonalEdgeStyle;rounded=0;orthogonalLoop=1;jettySize=auto;html=1;entryX=1;entryY=0.5;entryDx=0;entryDy=0;" parent="1" source="URHFPd7x1FeZMZEvrIZl-131" target="URHFPd7x1FeZMZEvrIZl-127" edge="1">
                    <mxGeometry relative="1" as="geometry"/>
                </mxCell>
                <mxCell id="URHFPd7x1FeZMZEvrIZl-131" value="체인링크&lt;br&gt;네트워크" style="whiteSpace=wrap;html=1;aspect=fixed;" parent="1" vertex="1">
                    <mxGeometry x="941.25" y="1948.5" width="80" height="80" as="geometry"/>
                </mxCell>
                <mxCell id="URHFPd7x1FeZMZEvrIZl-132" value="블록체인 &lt;br&gt;네트워크" style="whiteSpace=wrap;html=1;aspect=fixed;" parent="1" vertex="1">
                    <mxGeometry x="632.75" y="1828" width="80" height="80" as="geometry"/>
                </mxCell>
                <mxCell id="URHFPd7x1FeZMZEvrIZl-133" style="edgeStyle=orthogonalEdgeStyle;rounded=0;orthogonalLoop=1;jettySize=auto;html=1;entryX=0.5;entryY=1;entryDx=0;entryDy=0;" parent="1" source="URHFPd7x1FeZMZEvrIZl-136" target="URHFPd7x1FeZMZEvrIZl-116" edge="1">
                    <mxGeometry relative="1" as="geometry"/>
                </mxCell>
                <mxCell id="URHFPd7x1FeZMZEvrIZl-134" style="edgeStyle=orthogonalEdgeStyle;rounded=0;orthogonalLoop=1;jettySize=auto;html=1;entryX=0;entryY=1;entryDx=0;entryDy=0;" parent="1" source="URHFPd7x1FeZMZEvrIZl-136" target="URHFPd7x1FeZMZEvrIZl-122" edge="1">
                    <mxGeometry relative="1" as="geometry"/>
                </mxCell>
                <mxCell id="URHFPd7x1FeZMZEvrIZl-135" style="edgeStyle=orthogonalEdgeStyle;rounded=0;orthogonalLoop=1;jettySize=auto;html=1;entryX=1;entryY=0.5;entryDx=0;entryDy=0;" parent="1" source="URHFPd7x1FeZMZEvrIZl-136" target="URHFPd7x1FeZMZEvrIZl-140" edge="1">
                    <mxGeometry relative="1" as="geometry"/>
                </mxCell>
                <mxCell id="URHFPd7x1FeZMZEvrIZl-136" value="서버" style="whiteSpace=wrap;html=1;aspect=fixed;" parent="1" vertex="1">
                    <mxGeometry x="343.75" y="2241.5" width="80" height="80" as="geometry"/>
                </mxCell>
                <mxCell id="URHFPd7x1FeZMZEvrIZl-138" style="edgeStyle=orthogonalEdgeStyle;rounded=0;orthogonalLoop=1;jettySize=auto;html=1;" parent="1" source="URHFPd7x1FeZMZEvrIZl-140" edge="1">
                    <mxGeometry relative="1" as="geometry">
                        <mxPoint x="343.75" y="2281.5" as="targetPoint"/>
                    </mxGeometry>
                </mxCell>
                <mxCell id="URHFPd7x1FeZMZEvrIZl-139" style="edgeStyle=orthogonalEdgeStyle;rounded=0;orthogonalLoop=1;jettySize=auto;html=1;entryX=0.921;entryY=0.994;entryDx=0;entryDy=0;entryPerimeter=0;" parent="1" source="URHFPd7x1FeZMZEvrIZl-140" target="URHFPd7x1FeZMZEvrIZl-122" edge="1">
                    <mxGeometry relative="1" as="geometry">
                        <Array as="points">
                            <mxPoint x="253.75" y="2400"/>
                            <mxPoint x="706.75" y="2400"/>
                        </Array>
                    </mxGeometry>
                </mxCell>
                <mxCell id="URHFPd7x1FeZMZEvrIZl-148" style="edgeStyle=orthogonalEdgeStyle;rounded=0;orthogonalLoop=1;jettySize=auto;html=1;entryX=0.5;entryY=0;entryDx=0;entryDy=0;" parent="1" source="URHFPd7x1FeZMZEvrIZl-140" target="URHFPd7x1FeZMZEvrIZl-132" edge="1">
                    <mxGeometry relative="1" as="geometry">
                        <Array as="points">
                            <mxPoint x="250" y="1750"/>
                            <mxPoint x="673" y="1750"/>
                        </Array>
                    </mxGeometry>
                </mxCell>
                <mxCell id="URHFPd7x1FeZMZEvrIZl-140" value="기업용 지갑" style="whiteSpace=wrap;html=1;aspect=fixed;" parent="1" vertex="1">
                    <mxGeometry x="213.75" y="2241.5" width="80" height="80" as="geometry"/>
                </mxCell>
                <mxCell id="URHFPd7x1FeZMZEvrIZl-141" value="" style="endArrow=none;dashed=1;html=1;dashPattern=1 3;strokeWidth=2;rounded=0;entryX=0.5;entryY=0;entryDx=0;entryDy=0;exitX=0.5;exitY=1;exitDx=0;exitDy=0;" parent="1" source="URHFPd7x1FeZMZEvrIZl-129" target="URHFPd7x1FeZMZEvrIZl-116" edge="1">
                    <mxGeometry width="50" height="50" relative="1" as="geometry">
                        <mxPoint x="390" y="1921.5" as="sourcePoint"/>
                        <mxPoint x="754" y="2028.5" as="targetPoint"/>
                    </mxGeometry>
                </mxCell>
            </root>
        </mxGraphModel>
    </diagram>
</mxfile>